<svg version="1.1" xmlns="http://www.w3.org/2000/svg" style="display: block;" viewBox="0 0 2048 2048" width="2048" height="2048" preserveAspectRatio="none">
<defs>
	<linearGradient id="Gradient1" gradientUnits="userSpaceOnUse" x1="1052.53" y1="1408.89" x2="1064.59" y2="1401.64">
		<stop class="stop0" offset="0" stop-opacity="1" stop-color="rgb(32,31,30)"/>
		<stop class="stop1" offset="1" stop-opacity="1" stop-color="rgb(56,56,58)"/>
	</linearGradient>
	<linearGradient id="Gradient2" gradientUnits="userSpaceOnUse" x1="589.217" y1="930.41" x2="560.216" y2="933.401">
		<stop class="stop0" offset="0" stop-opacity="1" stop-color="rgb(84,58,90)"/>
		<stop class="stop1" offset="1" stop-opacity="1" stop-color="rgb(110,71,123)"/>
	</linearGradient>
</defs>
<path transform="translate(0,0)" fill="rgb(253,254,251)" d="M 0 0 L 2048 0 L 2048 2048 L 0 2048 L 0 0 z"/>
<path transform="translate(0,0)" fill="rgb(0,103,120)" d="M 1291.06 559.896 L 1474.24 559.782 C 1565.02 559.686 1690.57 549.761 1748.58 636.449 C 1778.61 681.317 1783.43 739.904 1772.75 791.821 C 1766.78 813.821 1758.27 837.823 1742.57 854.95 C 1733.79 869.126 1710.29 884.106 1696.27 892.676 C 1723.58 899.855 1748.7 913.659 1769.4 932.866 C 1804.4 965.908 1820.63 1015 1822.22 1062.46 C 1824.29 1118.16 1812.48 1172.8 1773.09 1214.22 C 1736.11 1253.1 1687.8 1268.58 1636.03 1276.41 C 1606.34 1280.9 1577.55 1280.03 1547.56 1279.99 C 1516.77 1279.76 1485.98 1279.83 1455.19 1280.18 C 1414.31 1230.59 1370.01 1184.15 1328.14 1135.58 C 1361.72 1085.4 1387.75 1012.46 1393.22 952.573 C 1395.16 931.331 1394.1 901.936 1395.01 879.427 C 1384.58 880.407 1367.63 879.982 1356.74 879.977 L 1291.65 879.896 L 1291.06 559.896 z"/>
<path transform="translate(0,0)" fill="rgb(1,97,110)" d="M 1742.57 854.95 C 1741.86 845.444 1758.48 828.81 1762.29 817.864 C 1765.14 810.712 1765.14 802.514 1768.91 795.684 C 1770.21 793.316 1770.68 791.685 1771.28 789.066 C 1772.69 790.623 1772.19 789.713 1772.75 791.821 C 1766.78 813.821 1758.27 837.823 1742.57 854.95 z"/>
<path transform="translate(0,0)" fill="rgb(253,254,251)" d="M 1458.77 965.476 C 1484.4 965.091 1510.82 965.227 1536.51 965.237 C 1561.57 965.768 1584.15 962.757 1608.86 968.225 C 1669.61 981.668 1688.12 1040.18 1675.27 1095.71 C 1669.99 1118.54 1657.52 1132.14 1637.66 1144.04 C 1606.62 1161.38 1565.21 1158.55 1530.54 1158.72 C 1498.4 1158.89 1466.43 1158.26 1434.23 1158.92 C 1436.41 1097.45 1435.01 1028 1434.94 965.997 L 1458.77 965.476 z"/>
<path transform="translate(0,0)" fill="rgb(253,254,251)" d="M 1434.59 682.728 C 1451.53 677.213 1499.76 681.13 1519 680.412 C 1536.26 679.769 1580.51 678.85 1595.67 686.424 L 1596.28 688.569 C 1616.9 696.582 1633.8 706.545 1642.7 728.053 C 1659.76 769.25 1650.87 830.689 1604.49 848.729 C 1574.93 860.227 1536.56 855.706 1504.57 856.13 C 1483.21 856.413 1456.24 857.442 1435.32 856.394 C 1434.52 855.523 1434.09 855.272 1433.63 854.259 C 1433.12 854.908 1432.62 855.556 1432.11 856.204 C 1429.38 844.562 1430.77 693.235 1433.55 688.936 C 1433.35 684.326 1432.73 686.235 1434.59 682.728 z"/>
<path transform="translate(0,0)" fill="rgb(1,97,110)" d="M 1433.63 854.259 C 1433.12 854.908 1432.62 855.556 1432.11 856.204 C 1429.38 844.562 1430.77 693.235 1433.55 688.936 C 1434.2 727.14 1434.5 765.35 1434.48 803.559 C 1434.47 814.373 1435.02 845.918 1433.63 854.259 z"/>
<path transform="translate(0,0)" fill="rgb(1,97,110)" d="M 1434.59 682.728 C 1451.53 677.213 1499.76 681.13 1519 680.412 C 1536.26 679.769 1580.51 678.85 1595.67 686.424 L 1596.28 688.569 C 1553.21 678.583 1515.06 684.571 1471.1 683.227 C 1460.32 682.897 1444.81 684.067 1434.59 682.728 z"/>
<path transform="translate(0,0)" fill="rgb(107,64,126)" d="M 977.408 566.946 C 977.616 566.805 977.824 566.663 978.031 566.522 C 1001.83 559.076 1050.79 557.504 1073.98 562.96 C 1174.9 576.158 1229.13 658.178 1216.56 756.052 C 1212.87 784.757 1194.3 832.693 1173.61 853.114 C 1159.77 870.111 1144.37 886.205 1126.29 898.772 C 1117.13 906.958 1102.57 913.733 1096.46 919.45 C 1099.68 922.962 1106.7 930.251 1109.25 933.826 C 1113.08 938.004 1119.37 944.512 1122.63 948.796 C 1126 951.822 1137.84 965.038 1140.24 968.852 C 1146.95 975.955 1156.78 986.203 1162.67 993.857 C 1168.7 1000.3 1211.2 1050.85 1212.97 1051.8 C 1214.32 1050.44 1214.34 1050.72 1215.15 1049.09 C 1230.62 1023.92 1236.28 1010.08 1244.69 981.965 L 1247.47 970.29 C 1251.36 948.359 1253.21 932.206 1253.16 910.035 C 1290.95 909.396 1329.97 910.073 1367.94 909.968 C 1367.69 924.842 1367 940.819 1364.95 955.527 C 1365.69 969.13 1353.15 1018.96 1347.58 1031.25 C 1343.47 1044.6 1336.28 1064.3 1329.08 1076.33 C 1327.96 1078.67 1326.01 1083.08 1324.61 1084.99 C 1315.41 1104.51 1304.57 1120.48 1291.11 1137.1 L 1298.88 1145.8 C 1338.06 1186.19 1376.06 1233.75 1414.94 1275.56 C 1416.19 1276.83 1417.13 1278.01 1418.28 1279.37 L 1417.86 1280.4 C 1383.83 1279.9 1349.78 1279.77 1315.75 1280.02 C 1301.6 1280.05 1277.5 1279.41 1264.31 1280.69 C 1258.89 1274.6 1253.55 1268.42 1248.31 1262.17 C 1246.1 1260.17 1244.68 1258.27 1242.77 1255.99 C 1240.17 1253.33 1237.45 1250.04 1234.98 1247.2 C 1229.22 1242.65 1215.58 1222.01 1208.55 1217.78 C 1207.54 1217.16 1205.86 1218.63 1204.3 1219.5 C 1201.71 1221.71 1199 1224.14 1196.28 1226.14 C 1195.27 1226.97 1194.3 1227.96 1193.19 1228.41 C 1189.47 1231.49 1186.82 1233.51 1182.84 1236.24 L 1184.7 1240.22 L 1183.55 1243.05 L 1181.71 1243.68 C 1178.46 1241.79 1179.81 1243.05 1177.88 1239.39 C 1169.64 1244.66 1149.34 1256.63 1140.3 1259.52 C 1133.29 1263.2 1129.25 1264.87 1121.79 1267.67 C 1116.39 1269.6 1108.75 1272.61 1103.44 1274.17 C 1097.62 1276.33 1093 1277.26 1087.08 1278.88 C 1078.07 1281.1 1055.83 1286.07 1046.83 1285.78 C 1018.72 1291.23 957.511 1287.94 930.463 1278.71 C 927.877 1278.68 925.719 1277.58 923.152 1276.66 C 904.722 1271.48 876.436 1257.5 861.808 1245.52 C 856.357 1242.02 850.395 1236.6 845.848 1231.97 C 838.55 1225.77 831.723 1217.03 826.026 1209.35 C 814.447 1195.98 801.585 1169.06 796.477 1152.17 C 780.985 1112.76 781.711 1052.81 798.499 1013.76 C 799.205 1010.31 801.552 1004.17 803.495 1001.2 C 808.707 988.114 815.82 975.873 824.605 964.867 C 831.891 952.485 849.64 935.438 861.075 926.778 C 864.062 923.967 868.5 920.861 871.871 918.345 C 870.281 916.204 870.268 916.312 869.442 913.804 L 870.32 912.388 C 873.803 912.256 874.027 912.856 876.916 914.846 C 884.597 909.479 892.56 904.527 900.77 900.01 C 902.569 897.789 916.473 891.233 919.903 889.55 C 904.499 874.124 886.837 849.348 876.293 830.418 C 860.075 801.302 851.499 766.571 851.922 733.316 C 852.069 721.827 851.168 716.331 854.472 705.046 C 856.477 683.564 864.887 661.835 874.734 642.816 C 875.553 640.994 877.123 638.819 878.254 637.088 C 880.487 633.029 883.06 629.617 885.737 625.848 C 905.129 597.394 944.243 574.523 977.408 566.946 z"/>
<path transform="translate(0,0)" fill="rgb(99,64,114)" d="M 1253.16 910.035 C 1290.95 909.396 1329.97 910.073 1367.94 909.968 C 1367.69 924.842 1367 940.819 1364.95 955.527 C 1361.45 946.486 1367.05 926.068 1365 915.187 C 1344.5 910.181 1311.97 914.412 1290.27 913.378 C 1281.89 912.979 1265.58 911.124 1258.52 914.316 C 1255.42 917.942 1256.3 919.704 1255.89 925.358 L 1255.81 924.868 C 1255.18 933.941 1253.3 965.512 1248.39 971.82 L 1247.47 970.29 C 1251.36 948.359 1253.21 932.206 1253.16 910.035 z"/>
<path transform="translate(0,0)" fill="rgb(99,64,114)" d="M 1248.31 1262.17 C 1252.78 1261.32 1252.76 1263.73 1257.38 1265.76 C 1258.94 1271.81 1261 1273.13 1265.29 1277.65 C 1286.09 1276.68 1406.46 1280.01 1414.94 1275.56 C 1416.19 1276.83 1417.13 1278.01 1418.28 1279.37 L 1417.86 1280.4 C 1383.83 1279.9 1349.78 1279.77 1315.75 1280.02 C 1301.6 1280.05 1277.5 1279.41 1264.31 1280.69 C 1258.89 1274.6 1253.55 1268.42 1248.31 1262.17 z"/>
<path transform="translate(0,0)" fill="rgb(89,56,103)" d="M 798.499 1013.76 C 798.952 1014.69 799.404 1015.61 799.856 1016.53 C 798.524 1025.37 792.333 1042.09 790.96 1050.25 C 787.533 1070.61 788.891 1094.3 788.944 1114.87 C 788.965 1122.91 798.729 1145.39 796.477 1152.17 C 780.985 1112.76 781.711 1052.81 798.499 1013.76 z"/>
<path transform="translate(0,0)" fill="rgb(89,56,103)" d="M 930.463 1278.71 C 934.744 1277.66 958.172 1282.19 964.759 1283.41 C 992.591 1288.53 1018.95 1283.85 1046.45 1284.57 L 1046.83 1285.78 C 1018.72 1291.23 957.511 1287.94 930.463 1278.71 z"/>
<path transform="translate(0,0)" fill="rgb(99,64,114)" d="M 977.408 566.946 C 977.616 566.805 977.824 566.663 978.031 566.522 C 1001.83 559.076 1050.79 557.504 1073.98 562.96 C 1063.57 566.741 1063.13 562.397 1055.14 562.654 C 1030.54 563.445 1005.45 560.541 981.701 568.245 C 979.704 568.893 979.641 568.83 977.57 568.64 L 977.408 566.946 z"/>
<path transform="translate(0,0)" fill="rgb(99,64,114)" d="M 1244.69 981.965 C 1247.64 987.572 1246.04 987.729 1244.43 994.132 C 1241.36 1006.26 1226.75 1042.41 1217.47 1048.68 L 1215.15 1049.09 C 1230.62 1023.92 1236.28 1010.08 1244.69 981.965 z"/>
<path transform="translate(0,0)" fill="rgb(99,64,114)" d="M 1298.88 1145.8 L 1296.45 1147.21 L 1294.49 1146.6 C 1283.64 1131.01 1298.77 1125.45 1305.37 1113.72 C 1311.25 1103.27 1314.98 1094.81 1322.52 1084.83 L 1324.61 1084.99 C 1315.41 1104.51 1304.57 1120.48 1291.11 1137.1 L 1298.88 1145.8 z"/>
<path transform="translate(0,0)" fill="rgb(102,62,119)" d="M 861.808 1245.52 C 867.549 1245.24 891.497 1260.34 897.826 1264.17 C 903.827 1267.79 903.078 1261.46 906.659 1264.02 L 906.581 1266.48 C 907.118 1267.03 922.625 1273.99 925.005 1275.1 C 923.673 1276.51 924.357 1276.08 923.152 1276.66 C 904.722 1271.48 876.436 1257.5 861.808 1245.52 z"/>
<path transform="translate(0,0)" fill="rgb(102,62,119)" d="M 1126.29 898.772 L 1126.41 897.455 C 1128.73 894.185 1132.02 885.334 1134.09 883.953 C 1135.79 886.547 1134.62 885.758 1137.27 886.859 C 1145.31 882.101 1162.27 861.107 1171.43 852.779 L 1173.61 853.114 C 1159.77 870.111 1144.37 886.205 1126.29 898.772 z"/>
<path transform="translate(0,0)" fill="rgb(89,56,103)" d="M 874.734 642.816 C 877.504 653.739 855.785 680.512 863.904 689.543 L 861.997 692.01 L 860.342 690.693 C 856.25 696.178 859.552 699.875 854.472 705.046 C 856.477 683.564 864.887 661.835 874.734 642.816 z"/>
<path transform="translate(0,0)" fill="rgb(102,62,119)" d="M 824.605 964.867 C 827.815 975.043 811.468 994.404 803.495 1001.2 C 808.707 988.114 815.82 975.873 824.605 964.867 z"/>
<path transform="translate(0,0)" fill="rgb(99,64,114)" d="M 876.916 914.846 C 884.597 909.479 892.56 904.527 900.77 900.01 C 900.119 903.178 898.706 905.755 895.665 907.107 C 888.969 910.084 866.167 926.664 861.075 926.778 C 864.062 923.967 868.5 920.861 871.871 918.345 C 870.281 916.204 870.268 916.312 869.442 913.804 L 870.32 912.388 C 873.803 912.256 874.027 912.856 876.916 914.846 z"/>
<path transform="translate(0,0)" fill="rgb(252,253,245)" d="M 871.871 918.345 C 870.281 916.204 870.268 916.312 869.442 913.804 L 870.32 912.388 C 873.803 912.256 874.027 912.856 876.916 914.846 L 871.871 918.345 z"/>
<path transform="translate(0,0)" fill="rgb(102,62,119)" d="M 1240.59 1248.28 C 1250.68 1247.11 1254.01 1255.72 1258.43 1263.81 L 1257.38 1265.76 C 1252.76 1263.73 1252.78 1261.32 1248.31 1262.17 C 1246.1 1260.17 1244.68 1258.27 1242.77 1255.99 C 1242.89 1251.76 1242.81 1251.98 1240.59 1248.28 z"/>
<path transform="translate(0,0)" fill="rgb(99,64,114)" d="M 1329.08 1076.33 C 1327.99 1070.97 1342.61 1038.38 1345.65 1031.76 L 1347.58 1031.25 C 1343.47 1044.6 1336.28 1064.3 1329.08 1076.33 z"/>
<path transform="translate(0,0)" fill="rgb(102,62,119)" d="M 1140.24 968.852 C 1146.95 975.955 1156.78 986.203 1162.67 993.857 L 1161.16 994.319 C 1154.53 991.635 1140.34 976.435 1140.24 968.852 z"/>
<path transform="translate(0,0)" fill="rgb(99,64,114)" d="M 826.026 1209.35 C 833.69 1210.85 841.368 1222.21 846.278 1228.73 C 846.483 1231.06 846.67 1229.99 845.848 1231.97 C 838.55 1225.77 831.723 1217.03 826.026 1209.35 z"/>
<path transform="translate(0,0)" fill="rgb(102,62,119)" d="M 1121.79 1267.67 L 1120.2 1266.64 C 1125.21 1262.49 1133.65 1257.7 1140.3 1259.52 C 1133.29 1263.2 1129.25 1264.87 1121.79 1267.67 z"/>
<path transform="translate(0,0)" fill="rgb(99,64,114)" d="M 1109.25 933.826 C 1113.08 938.004 1119.37 944.512 1122.63 948.796 C 1116.43 951.094 1109.29 938.841 1109.25 933.826 z"/>
<path transform="translate(0,0)" fill="rgb(102,62,119)" d="M 1196.28 1226.14 C 1195.81 1223.48 1195.73 1222.37 1196.6 1219.82 C 1195.14 1218.87 1194.94 1218.65 1193.63 1217.5 L 1194.23 1216.32 C 1199.69 1216.28 1198.19 1219.55 1204.3 1219.5 C 1201.71 1221.71 1199 1224.14 1196.28 1226.14 z"/>
<path transform="translate(0,0)" fill="rgb(102,62,119)" d="M 885.737 625.848 C 885.943 629.872 884.791 634.085 883.248 637.737 C 881.112 638.526 882.27 638.277 879.75 638.368 L 878.254 637.088 C 880.487 633.029 883.06 629.617 885.737 625.848 z"/>
<path transform="translate(0,0)" fill="rgb(102,62,119)" d="M 1181.85 1236.28 C 1181.72 1229.03 1186.72 1227.72 1193.19 1228.41 C 1189.47 1231.49 1186.82 1233.51 1182.84 1236.24 L 1181.85 1236.28 z"/>
<path transform="translate(0,0)" fill="rgb(252,253,245)" d="M 1182.84 1236.24 L 1184.7 1240.22 L 1183.55 1243.05 L 1181.71 1243.68 C 1178.46 1241.79 1179.81 1243.05 1177.88 1239.39 C 1179.24 1238.48 1180.57 1237.32 1181.85 1236.28 L 1182.84 1236.24 z"/>
<path transform="translate(0,0)" fill="rgb(253,254,251)" d="M 993.495 971.638 C 997.04 969.641 995.639 970.163 1000.52 970.935 C 1003.62 973.307 1006.77 975.216 1008.5 978.654 C 1008.34 981.074 1008.25 980.907 1006.7 982.826 C 1013.11 990.132 1013.71 988.2 1018.16 997.75 L 1017.07 999.367 C 1044.72 1032.76 1079.78 1072.59 1108.88 1104.89 L 1109.87 1105.06 C 1113.7 1105.73 1114.15 1105.81 1117.94 1105.54 C 1118.55 1107.03 1118.15 1112.43 1118.73 1116.11 C 1124.04 1122.62 1129.97 1128.16 1135.38 1134.46 C 1108.99 1153.57 1081.85 1169.37 1049.6 1175.1 C 1047.74 1175.43 1039.46 1176.93 1038.31 1177.55 L 1040.68 1177.75 L 1040.78 1178.64 C 1034.44 1180.95 1004.11 1181.73 997.841 1180.66 L 994.117 1180.02 L 994.059 1179.04 C 997.691 1178.81 1000.82 1179.1 1004.51 1178.78 C 966.509 1175.04 941.867 1164.55 920.498 1132.08 L 918.81 1132.37 C 905.19 1117.63 902.065 1067.03 912.491 1050.77 L 914.446 1050.91 C 928.356 1019.28 939.31 1011.08 963.321 988.932 L 963.602 986.9 C 967.154 982.549 971.808 976.837 978.151 978.011 C 983.184 974.366 987.63 969.238 993.495 971.638 z"/>
<path transform="translate(0,0)" fill="rgb(99,64,114)" d="M 920.498 1132.08 L 918.81 1132.37 C 905.19 1117.63 902.065 1067.03 912.491 1050.77 L 914.446 1050.91 C 905.869 1082.68 906.376 1102.64 920.498 1132.08 z"/>
<path transform="translate(0,0)" fill="rgb(102,62,119)" d="M 993.495 971.638 C 997.04 969.641 995.639 970.163 1000.52 970.935 C 1003.62 973.307 1006.77 975.216 1008.5 978.654 C 1008.34 981.074 1008.25 980.907 1006.7 982.826 C 1013.11 990.132 1013.71 988.2 1018.16 997.75 L 1017.07 999.367 C 1013.79 996.745 995.669 975.701 993.495 971.638 z"/>
<path transform="translate(0,0)" fill="rgb(99,64,114)" d="M 1038.31 1177.55 L 1040.68 1177.75 L 1040.78 1178.64 C 1034.44 1180.95 1004.11 1181.73 997.841 1180.66 L 994.117 1180.02 L 994.059 1179.04 C 997.691 1178.81 1000.82 1179.1 1004.51 1178.78 C 1015.79 1178.9 1027.07 1178.49 1038.31 1177.55 z"/>
<path transform="translate(0,0)" fill="rgb(99,64,114)" d="M 1108.88 1104.89 L 1109.87 1105.06 C 1113.7 1105.73 1114.15 1105.81 1117.94 1105.54 C 1118.55 1107.03 1118.15 1112.43 1118.73 1116.11 C 1115.66 1112.87 1111.89 1108.32 1108.88 1104.89 z"/>
<path transform="translate(0,0)" fill="rgb(99,64,114)" d="M 963.321 988.932 L 963.602 986.9 C 967.154 982.549 971.808 976.837 978.151 978.011 C 973.206 981.934 968.737 985.667 963.321 988.932 z"/>
<path transform="translate(0,0)" fill="rgb(253,254,251)" d="M 964.569 701.135 L 963.562 699.015 C 965.337 692.232 972.541 685.907 969.762 681.284 C 971.596 678.743 991.714 665.639 995.527 664.021 C 1012.99 656.61 1039.01 652.567 1057.06 659.122 L 1056.5 660.219 L 1054.29 660.517 C 1068.16 664.698 1078.95 668.418 1088.9 678.63 C 1118.86 709.38 1114.86 762.925 1085.99 792.959 C 1084.72 794.273 1078.64 801.066 1077.93 802.364 C 1075.38 804.432 1069.46 808.942 1067.62 811.192 C 1058.47 818.122 1030.28 836.271 1023.89 842.988 L 1024.83 843.262 L 1025.2 844.234 C 1022.68 844.442 1020.99 844.904 1018.83 843.695 C 1015.35 838.533 1006.05 826.974 1005.48 822.059 C 996.047 810.724 986.51 797.616 977.257 786.908 C 975.929 787.209 976.738 787.111 974.813 786.933 C 967.367 778.194 954.85 756.005 957.849 744.308 L 958.945 743.891 C 957.388 724.202 958.23 719.884 964.569 701.135 z"/>
<path transform="translate(0,0)" fill="rgb(99,64,114)" d="M 964.569 701.135 L 963.562 699.015 C 965.337 692.232 972.541 685.907 969.762 681.284 C 971.596 678.743 991.714 665.639 995.527 664.021 C 1012.99 656.61 1039.01 652.567 1057.06 659.122 L 1056.5 660.219 L 1054.29 660.517 C 1021.52 656.448 997.333 659.459 974.31 684.797 C 971.253 688.827 969.971 690.473 967.604 694.866 L 964.569 701.135 z"/>
<path transform="translate(0,0)" fill="rgb(99,64,114)" d="M 977.257 786.908 C 975.929 787.209 976.738 787.111 974.813 786.933 C 967.367 778.194 954.85 756.005 957.849 744.308 L 958.945 743.891 C 963.463 762.904 966.962 769.929 977.257 786.908 z"/>
<path transform="translate(0,0)" fill="rgb(102,62,119)" d="M 1005.48 822.059 C 1009.44 826.524 1020.52 840.009 1023.89 842.988 L 1024.83 843.262 L 1025.2 844.234 C 1022.68 844.442 1020.99 844.904 1018.83 843.695 C 1015.35 838.533 1006.05 826.974 1005.48 822.059 z"/>
<path transform="translate(0,0)" fill="rgb(252,253,245)" d="M 967.604 694.866 C 969.971 690.473 971.253 688.827 974.31 684.797 C 976.539 689.276 978.33 694.498 973.056 697.326 C 970.131 696.682 970.179 696.511 967.604 694.866 z"/>
<path transform="translate(0,0)" fill="rgb(99,64,114)" d="M 1077.93 802.364 L 1079.58 803.129 C 1082.41 802.009 1084.89 800.945 1087.45 799.023 C 1087.46 799.012 1089.82 794.762 1090.04 794.387 C 1090.45 794.55 1090.85 794.713 1091.26 794.875 C 1092.51 797.848 1092.38 796.332 1091.44 799.591 C 1089.69 801.178 1061.85 822.306 1060.44 822.991 C 1061.39 819.601 1064.9 816.034 1067.36 813.475 L 1067.62 811.192 C 1069.46 808.942 1075.38 804.432 1077.93 802.364 z"/>
<path transform="translate(0,0)" fill="rgb(102,62,119)" d="M 1129.78 1118.56 L 1135.2 1120.01 C 1137.31 1122.38 1136.49 1122.63 1136.38 1126.93 L 1132.03 1125.59 C 1129.54 1122.53 1130.33 1123.19 1129.78 1118.56 z"/>
<path transform="translate(0,0)" fill="rgb(102,62,119)" d="M 1069.32 1041.56 C 1070.04 1041.16 1071.09 1040.91 1071.92 1040.65 L 1070.34 1042.4 L 1068.14 1043.29 L 1069.32 1041.56 z"/>
<path transform="translate(0,0)" fill="rgb(107,64,126)" d="M 297.777 688.167 C 352.349 689.495 408.431 687.486 463.109 688.463 C 484.787 688.85 519.834 687.019 540.305 690.015 C 548.613 691.894 566.228 692.732 575.923 694.005 C 587.322 696.074 596.258 697.992 607.587 700.96 C 615.184 703.522 627.421 707.792 634.491 711.466 C 638.732 713.641 640.732 714.505 644.413 717.417 C 680.422 732.475 709.321 798.007 718.029 834.252 C 718.869 838.303 719.681 842.429 720.567 846.463 C 721.176 849.838 722.84 857.788 723.037 860.894 C 728.308 884.157 729.358 936.597 725.993 960.74 C 725.546 999.581 705.78 1073.22 680.917 1102.23 C 678.85 1105.04 676.698 1108.08 674.524 1110.77 C 648.947 1141.61 613.449 1156.13 574.275 1159.73 C 572.583 1159.89 570.889 1160.03 569.196 1160.17 C 563.494 1161.76 496.479 1161.16 484.09 1161.17 C 424.458 1161.2 364.187 1161.29 304.497 1161.25 C 300.661 1161.25 298.405 1161.71 296.223 1159.45 C 296.742 1153.43 295.308 1143.18 297.163 1138.26 C 304.908 1136.88 343.734 1137.48 352.993 1137.48 C 380.828 1137.47 413.224 1135.86 440.741 1137.2 C 442.986 1126.71 447.368 1112.2 450.7 1102.08 C 452.02 1098.34 453.767 1094.43 453.749 1090.54 C 446.816 1089.48 433.793 1089.94 426.416 1089.94 L 382.441 1089.74 C 369.352 1090 356.26 1090.07 343.169 1089.92 C 342.728 1079.02 343.153 1066.76 343.3 1055.75 L 343.226 936.937 C 343.187 906.575 342.627 874.272 343.686 844.014 L 541.99 843.898 C 572.708 843.927 606.363 843.139 636.773 843.793 C 637.091 891.113 637.156 938.435 636.968 985.756 C 636.923 1019.95 637.27 1055.41 636.153 1089.5 C 611.594 1090.13 571.711 1090.56 547.086 1089.41 C 547.52 1091.31 549.485 1099.21 549.603 1100.66 C 552.142 1108.75 558.04 1126.23 559.666 1134.01 C 559.933 1134.91 560.967 1136.78 561.433 1137.7 C 564.431 1139.04 564.821 1138.54 567.872 1138.14 C 594.299 1134.67 617.521 1127.69 639.424 1111.86 C 644.927 1107.88 651.226 1100.25 655.981 1096.83 L 657.051 1096.07 C 659.142 1092.07 667.66 1080.25 670.864 1075.2 C 714.83 1001.34 714.853 860.803 674.638 784.283 C 653.077 743.258 626.421 731.573 584.272 719.397 C 528.257 709.924 480.736 711.962 424.253 712.113 C 382.036 711.972 339.819 712.061 297.603 712.381 C 297.889 704.447 297.77 696.135 297.777 688.167 z"/>
<path transform="translate(0,0)" fill="rgb(99,64,114)" d="M 297.777 688.167 C 352.349 689.495 408.431 687.486 463.109 688.463 C 484.787 688.85 519.834 687.019 540.305 690.015 C 533.055 692.963 501.155 689.937 489.616 690.035 L 300.379 691.511 L 299.864 708.977 C 360.498 708.437 421.136 708.601 481.767 709.469 C 502.631 709.906 568.834 709.953 583.675 717.596 L 584.272 719.397 C 528.257 709.924 480.736 711.962 424.253 712.113 C 382.036 711.972 339.819 712.061 297.603 712.381 C 297.889 704.447 297.77 696.135 297.777 688.167 z"/>
<path transform="translate(0,0)" fill="rgb(99,64,114)" d="M 296.223 1159.45 C 296.486 1159.37 331.245 1158.53 333.794 1158.56 C 411.963 1159.28 490.617 1157.46 568.736 1158.57 L 569.196 1160.17 C 563.494 1161.76 496.479 1161.16 484.09 1161.17 C 424.458 1161.2 364.187 1161.29 304.497 1161.25 C 300.661 1161.25 298.405 1161.71 296.223 1159.45 z"/>
<path transform="translate(0,0)" fill="rgb(99,64,114)" d="M 450.7 1102.08 C 453.543 1108.21 445.841 1133.5 440.917 1138.8 C 433.476 1140.39 306.984 1140.39 301.214 1138.98 L 298.972 1140.49 L 297.163 1138.26 C 304.908 1136.88 343.734 1137.48 352.993 1137.48 C 380.828 1137.47 413.224 1135.86 440.741 1137.2 C 442.986 1126.71 447.368 1112.2 450.7 1102.08 z"/>
<path transform="translate(0,0)" fill="rgb(99,64,114)" d="M 657.051 1096.07 C 659.142 1092.07 667.66 1080.25 670.864 1075.2 C 674.252 1078.1 673.473 1076.41 674.412 1079.9 L 673.018 1083.09 L 673.644 1084.41 L 676.085 1084.09 C 676.514 1085.99 676.579 1085.03 675.728 1086.96 C 683.249 1087.75 687.227 1079.73 690.895 1080.07 C 687.398 1098.84 680.795 1087.46 673.205 1088.48 C 669.489 1091.35 669.831 1094.1 669.716 1098.61 C 667.037 1098.72 668.085 1098.77 665.401 1097.5 L 665.351 1098.6 C 665.173 1101.84 665.396 1102.9 663.509 1105.55 L 661.684 1106.23 C 660.837 1103.34 661.12 1104.41 661.83 1101.06 L 660.609 1100.02 L 656.338 1100.84 C 656.236 1098.34 656.399 1099.3 658.346 1096.42 L 657.051 1096.07 z"/>
<path transform="translate(0,0)" fill="rgb(99,64,114)" d="M 343.3 1055.75 C 344.932 1052.62 343.979 1043.57 345.12 1038.61 C 345.624 1046.9 344.388 1082.3 347.604 1086.07 C 360.089 1087.23 436.054 1087.35 438.215 1088.45 C 428.586 1090.67 393.074 1086.96 382.441 1089.74 C 369.352 1090 356.26 1090.07 343.169 1089.92 C 342.728 1079.02 343.153 1066.76 343.3 1055.75 z"/>
<path transform="translate(0,0)" fill="rgb(89,56,103)" d="M 725.993 960.74 C 725.876 960.496 724.184 956.961 724.185 956.952 C 725.974 928.467 725.832 898.201 722.054 869.986 C 721.522 866.011 721.087 866.555 721.272 862.445 L 723.037 860.894 C 728.308 884.157 729.358 936.597 725.993 960.74 z"/>
<path transform="translate(0,0)" fill="rgb(102,62,119)" d="M 720.567 846.463 C 718.298 848.358 718.062 848.513 715.003 848.531 C 703.27 848.601 704.76 837.116 703.066 832.29 C 703.967 830.069 703.867 830.568 705.886 828.856 L 710.798 833.933 C 713.297 834.964 714.372 834.624 717.053 834.357 L 718.029 834.252 C 718.869 838.303 719.681 842.429 720.567 846.463 z"/>
<path transform="translate(0,0)" fill="rgb(99,64,114)" d="M 575.923 694.005 C 587.322 696.074 596.258 697.992 607.587 700.96 C 598.287 704.281 587.322 703.732 578.985 698.107 L 579.377 698.124 C 577.239 696.377 576.969 696.481 575.923 694.005 z"/>
<path transform="translate(0,0)" fill="rgb(99,64,114)" d="M 559.666 1134.01 C 558.295 1134.33 559.013 1134.37 557.534 1133.67 C 554.143 1125.34 547.244 1109.49 549.603 1100.66 C 552.142 1108.75 558.04 1126.23 559.666 1134.01 z"/>
<path transform="translate(0,0)" fill="rgb(102,62,119)" d="M 634.491 711.466 C 638.732 713.641 640.732 714.505 644.413 717.417 C 638.516 717.057 638.078 719.452 634.234 717.538 C 634.201 715.268 634.313 713.735 634.491 711.466 z"/>
<path transform="translate(0,0)" fill="rgb(99,64,114)" d="M 674.524 1110.77 C 672.471 1109.67 673.105 1110.21 671.641 1108.32 L 672.878 1105.41 C 677.736 1101.58 675.693 1102.04 680.917 1102.23 C 678.85 1105.04 676.698 1108.08 674.524 1110.77 z"/>
<path transform="translate(0,0)" fill="rgb(253,254,251)" d="M 467.168 923.565 C 470.146 910.014 467.682 880.19 468.383 864.782 C 470.847 872.57 470.118 914.876 470.18 925.727 L 470.212 1016.45 C 470.199 1023.7 468.289 1040.15 469.323 1044.98 L 467.911 1048.3 C 471.26 1049.13 482.468 1048.76 486.597 1048.72 L 486.656 1007.6 C 482.306 991.106 480.425 922.983 484.702 907.107 L 486.819 908.017 L 486.868 892.883 C 487.036 887.012 486.85 881.14 486.736 875.265 C 486.754 870.934 486.46 868.902 487.847 864.895 C 496.319 864.001 507.981 865.716 518.471 864.78 L 519.967 864.638 C 524.218 864.772 528.458 864.546 532.712 864.394 C 558.527 864.337 588.505 865.023 613.968 864.074 C 614.082 881.579 613.629 902.554 614.344 919.742 C 616.93 915.544 614.512 887.006 615.593 879.843 C 616.797 881.577 617.246 1026.02 617.071 1040.57 C 616.896 1050.47 616.422 1060.36 615.65 1070.23 C 615.44 1069.25 615.069 1066.97 614.644 1066.22 L 613.759 1069.4 C 608.621 1071.78 389.323 1070.13 365.744 1070.72 C 367.209 1003.88 366.399 930.954 366.378 863.922 L 467.034 864.247 C 467.276 883.974 466.866 903.723 467.168 923.565 z"/>
<path transform="translate(0,0)" fill="rgb(89,56,103)" d="M 467.168 923.565 C 470.146 910.014 467.682 880.19 468.383 864.782 C 470.847 872.57 470.118 914.876 470.18 925.727 L 470.212 1016.45 C 470.199 1023.7 468.289 1040.15 469.323 1044.98 L 467.911 1048.3 C 465.979 1043.78 466.949 939.102 467.168 923.565 z"/>
<path transform="translate(0,0)" fill="rgb(99,64,114)" d="M 614.344 919.742 C 616.93 915.544 614.512 887.006 615.593 879.843 C 616.797 881.577 617.246 1026.02 617.071 1040.57 C 616.896 1050.47 616.422 1060.36 615.65 1070.23 C 615.44 1069.25 615.069 1066.97 614.644 1066.22 C 613.911 1061.83 613.958 1055.45 613.984 1050.88 C 614.229 1007.18 613.638 963.431 614.344 919.742 z"/>
<path transform="translate(0,0)" fill="rgb(99,64,114)" d="M 486.656 1007.6 C 482.306 991.106 480.425 922.983 484.702 907.107 L 486.819 908.017 L 486.656 1007.6 z"/>
<path transform="translate(0,0)" fill="rgb(102,62,119)" d="M 434.808 1045.92 C 428.643 1049.45 423.936 1051.78 416.732 1052.54 C 407.042 1053.57 397.343 1050.69 389.779 1044.55 C 365.929 1025.07 374.729 994.029 402.15 982.359 C 408.324 979.731 392.986 973.597 423.955 973.171 L 424.392 983.254 L 434.265 989.263 L 437.014 991.89 C 448.32 1001.49 453.808 1020.87 444.641 1033.43 C 441.833 1039.27 440.107 1042.11 434.808 1045.92 z"/>
<path transform="translate(0,0)" fill="rgb(99,64,114)" d="M 444.641 1033.43 L 443.721 1031.79 C 446.275 1025.05 444.248 1019.93 444.27 1013.28 C 444.298 1005.04 439.846 1002.98 435.93 993.542 L 437.014 991.89 C 448.32 1001.49 453.808 1020.87 444.641 1033.43 z"/>
<path transform="translate(0,0)" fill="rgb(253,254,251)" d="M 415.096 1034.96 C 405.661 1036.66 396.415 1031.15 393.424 1022.04 C 390.433 1012.93 394.61 1003.01 403.217 998.788 C 411.823 994.564 422.226 997.327 427.602 1005.27 C 431.247 1010.65 431.924 1017.51 429.4 1023.5 C 426.877 1029.5 421.495 1033.81 415.096 1034.96 z"/>
<path transform="translate(0,0)" fill="rgb(99,64,114)" d="M 408.818 1004.23 C 414.727 1002.31 421.087 1005.46 423.144 1011.32 C 425.201 1017.18 422.204 1023.61 416.392 1025.81 C 412.509 1027.27 408.136 1026.52 404.966 1023.84 C 401.796 1021.16 400.326 1016.98 401.126 1012.9 C 401.926 1008.83 404.87 1005.51 408.818 1004.23 z"/>
<path transform="translate(0,0)" fill="rgb(102,62,119)" d="M 506.653 1009.39 C 529.359 1008.59 554.501 1009.14 577.472 1009.19 C 577.183 1022.16 577.441 1035.98 577.472 1049.02 C 554.458 1048.54 530.096 1048.91 506.978 1048.88 C 507.069 1035.72 506.961 1022.55 506.653 1009.39 z"/>
<path transform="translate(0,0)" fill="rgb(102,62,119)" d="M 504.993 968.824 C 513.871 967.035 550.58 967.752 562.018 967.803 L 593.708 967.823 L 593.851 985.418 C 578.659 986.638 549.496 985.954 533.619 985.748 C 523.412 985.839 514.657 985.895 504.422 985.259 L 504.881 970.698 L 504.993 968.824 z"/>
<path transform="translate(0,0)" fill="rgb(99,64,114)" d="M 562.018 967.803 L 593.708 967.823 L 593.851 985.418 C 578.659 986.638 549.496 985.954 533.619 985.748 L 528.136 984.426 C 528.815 983.735 536.221 983.805 537.792 983.759 C 542.683 983.829 546.888 983.717 551.752 983.524 C 546.793 981.761 545.16 981.99 542.183 978.465 L 542.425 976.972 C 547.815 977.213 581.96 974.609 585.039 972.204 C 585.614 971.774 585.22 972.004 586.442 971.8 L 587.535 971.627 L 587.548 970.521 C 580.217 970.447 564.269 970.79 557.764 969.615 L 557.543 968.769 L 562.018 967.803 z"/>
<path transform="translate(0,0)" fill="rgb(89,56,103)" d="M 562.018 967.803 L 593.708 967.823 L 593.851 985.418 C 586.278 984.326 566.081 984.48 557.545 984.364 C 565.125 984.834 586.113 982.579 588.713 974.018 L 585.039 972.204 C 585.614 971.774 585.22 972.004 586.442 971.8 L 587.535 971.627 L 587.548 970.521 C 580.217 970.447 564.269 970.79 557.764 969.615 L 557.543 968.769 L 562.018 967.803 z"/>
<path transform="translate(0,0)" fill="rgb(107,64,126)" d="M 504.881 970.698 C 511.626 979.438 519.327 976.358 529.679 977.418 L 528.974 981.381 C 533.471 984.757 537.113 979.34 537.792 983.759 C 536.221 983.805 528.815 983.735 528.136 984.426 L 533.619 985.748 C 523.412 985.839 514.657 985.895 504.422 985.259 L 504.881 970.698 z"/>
<path transform="translate(0,0)" fill="rgb(99,64,114)" d="M 504.881 970.698 L 504.993 968.824 C 509.727 972.325 527.06 968.781 531.03 971.233 C 529.532 974.056 529.051 974.326 529.679 977.418 C 519.327 976.358 511.626 979.438 504.881 970.698 z"/>
<path transform="translate(0,0)" fill="url(#Gradient2)" d="M 572.417 907.545 C 576.192 913.252 595.899 941.191 595.818 945.589 L 593.569 945.694 C 582.357 946.627 562.854 946.129 551.292 946.141 C 554.938 939.356 558.752 932.662 562.729 926.066 C 565.922 919.83 570.103 913.856 572.417 907.545 z"/>
<path transform="translate(0,0)" fill="rgb(99,64,114)" d="M 562.729 926.066 C 563.189 932.636 558.336 935.352 559.351 940.39 C 563.531 944.615 585.992 944.22 593.569 945.694 C 582.357 946.627 562.854 946.129 551.292 946.141 C 554.938 939.356 558.752 932.662 562.729 926.066 z"/>
<path transform="translate(0,0)" fill="rgb(99,64,114)" d="M 520.379 908.698 C 522.756 911.637 539.306 940.196 542.848 945.935 C 536.661 945.648 529.415 945.843 523.147 945.869 C 515.684 945.928 508.221 945.74 500.771 945.305 C 506.774 933.323 515.569 920.353 520.379 908.698 z"/>
<path transform="translate(0,0)" fill="rgb(253,254,251)" d="M 497.711 1092.35 L 495.865 1091.41 C 499.47 1088.73 509.977 1088.63 514.327 1089.32 L 514.241 1090.53 L 512.102 1090.11 C 511.411 1094.19 513.638 1090.8 512.139 1094.68 C 516.981 1101.08 518.924 1106.7 518.568 1114.79 C 518.645 1117.29 518.878 1116.4 517.795 1118.61 C 515.458 1118.95 515.796 1119.19 513.701 1118.61 C 505.757 1116.37 493.5 1113.25 485.736 1116.54 C 483.197 1117.61 484.531 1117.28 481.911 1117.45 L 480.832 1116 L 481.58 1114.2 C 481.647 1103.59 487.485 1095.19 497.711 1092.35 z"/>
<path transform="translate(0,0)" fill="rgb(99,64,114)" d="M 481.58 1114.2 C 493.29 1110.14 498.528 1110.51 510.76 1112.99 C 514.09 1113.66 515.293 1114.75 518.568 1114.79 C 518.645 1117.29 518.878 1116.4 517.795 1118.61 C 515.458 1118.95 515.796 1119.19 513.701 1118.61 C 505.757 1116.37 493.5 1113.25 485.736 1116.54 C 483.197 1117.61 484.531 1117.28 481.911 1117.45 L 480.832 1116 L 481.58 1114.2 z"/>
<path transform="translate(0,0)" fill="rgb(102,62,119)" d="M 497.711 1092.35 L 495.865 1091.41 C 499.47 1088.73 509.977 1088.63 514.327 1089.32 L 514.241 1090.53 L 512.102 1090.11 C 511.411 1094.19 513.638 1090.8 512.139 1094.68 C 505.93 1092.05 504.543 1092.18 497.711 1092.35 z"/>
<path transform="translate(0,0)" fill="rgb(99,64,114)" d="M 519.967 864.638 L 519.694 863.399 C 516.948 862.046 507.993 861.184 504.199 860.62 C 511.431 860.149 561.502 859.348 564.924 860.158 L 564.892 861.391 C 556.63 862.532 538.172 860.707 530.642 863.424 L 532.712 864.394 C 528.458 864.546 524.218 864.772 519.967 864.638 z"/>
<path transform="translate(0,0)" fill="rgb(0,103,120)" d="M 228.746 562.476 C 303.929 561.606 379.68 563.791 454.938 562.945 C 510.669 562.317 564.167 563.007 618.778 576.359 C 633.825 579.876 652.349 584.721 666.298 591.386 C 727.92 613.318 786.3 676.034 812.737 734.885 C 817.558 745.619 836.237 789.698 836.528 799.745 C 839.757 809.492 845.186 831.817 846.569 842.261 C 850.52 856.393 852.218 877.334 854.519 891.991 C 852.416 893.149 844.121 897.911 842.397 898.525 L 829.939 906.815 C 828.833 898.631 828.261 889.992 827.581 881.731 C 825.498 876.146 824.057 859.481 822.984 852.691 C 813.028 789.73 789.111 739.544 752.447 688.417 L 751.896 687.693 L 740.688 675.376 L 725.976 660.431 C 722.982 658.393 720.621 655.973 717.997 653.487 L 716.882 652.666 C 712.53 650.116 707.32 645.917 703.102 642.897 C 666.617 616.747 624.66 603.994 581.018 596.41 C 566.317 593.856 549.157 593.676 535.283 590.44 C 443.106 586.9 348.835 591.48 256.847 589.29 C 256.894 596.258 257.176 604.58 256.974 611.432 L 256.688 805.637 C 256.707 815.961 258.034 895.271 256.191 900.748 C 255.427 937.29 256.052 975.447 256.103 1012.19 L 255.988 1183.32 L 255.839 1260.25 L 445.803 1260.48 C 463.193 1260.51 480.584 1260.39 497.973 1260.14 C 505.935 1259.99 522.972 1259.15 530.538 1259.75 C 589.239 1257.06 647.772 1248 697.917 1214.86 C 721.893 1199.01 753.144 1169.09 765.577 1142.91 C 767.646 1155.27 771.687 1167.21 777.545 1178.28 C 770.03 1188.75 751.497 1208.7 741.955 1217.34 C 737.966 1220.62 731.439 1226.27 727.402 1228.91 C 708.57 1245.49 676.837 1259.73 653.244 1268.35 C 644.367 1271.45 637.718 1273.1 628.673 1275.48 C 617.504 1278.04 606.284 1280.37 595.018 1282.46 C 540.841 1289.68 494.596 1288.32 440.28 1288.51 L 228.71 1288.93 L 229.195 1267.92 C 228.096 1246.31 229.124 1215.86 229.199 1193.84 L 229.202 1069.64 L 229.635 747.735 C 230.164 685.981 229.868 624.222 228.746 562.476 z"/>
<path transform="translate(0,0)" fill="rgb(1,97,110)" d="M 229.195 1267.92 C 230.236 1274.34 229.561 1282.72 233.726 1286.36 C 243.636 1286.35 261.296 1285.87 271.343 1285.51 C 284.326 1285.05 323.97 1286.33 333.94 1284.04 L 334.857 1282.91 L 332.504 1280.02 L 336.728 1279.5 L 338.221 1281.92 L 340.045 1280.39 L 338.425 1279.44 L 340.211 1280.17 L 336.368 1283.69 C 340.23 1286.64 512.067 1284.07 531.695 1285.65 C 541.51 1286.43 588.305 1277.47 595.018 1282.46 C 540.841 1289.68 494.596 1288.32 440.28 1288.51 L 228.71 1288.93 L 229.195 1267.92 z"/>
<path transform="translate(0,0)" fill="rgb(1,97,110)" d="M 254.48 586.657 C 305.546 583.071 363.087 585.493 414.404 586.078 C 433.28 586.293 527.744 583.701 537.762 589.444 L 535.283 590.44 C 443.106 586.9 348.835 591.48 256.847 589.29 C 256.894 596.258 257.176 604.58 256.974 611.432 C 256.44 613.899 256.63 615.315 255.136 616.701 C 253.749 611.289 254.425 593.089 254.48 586.657 z"/>
<path transform="translate(0,0)" fill="rgb(1,97,110)" d="M 255.988 1183.32 C 255.198 1183.96 255.742 1183.64 254.176 1183.89 C 252.97 1180.93 253.507 1145.39 253.497 1140.3 C 253.468 1109.69 253.251 1079.09 252.845 1048.49 C 252.761 1041.44 251.372 1030.04 251.807 1023.86 C 255.11 976.925 252.553 929.901 254.899 882.802 C 255.948 888.042 255.38 893.256 255.963 898.731 L 256.191 900.748 C 255.427 937.29 256.052 975.447 256.103 1012.19 L 255.988 1183.32 z"/>
<path transform="translate(0,0)" fill="rgb(1,97,110)" d="M 445.803 1260.48 C 463.193 1260.51 480.584 1260.39 497.973 1260.14 C 505.935 1259.99 522.972 1259.15 530.538 1259.75 C 535.604 1259.81 537.515 1259.67 542.363 1260.77 C 535.525 1262.04 523.034 1262.4 515.804 1262.68 C 485.439 1263.87 454.038 1263.03 423.596 1262.37 C 418.228 1262.25 411.3 1263.35 406.652 1262.06 L 406.957 1261.22 C 417.579 1258.94 435.223 1263.07 445.803 1260.48 z"/>
<path transform="translate(0,0)" fill="rgb(1,97,110)" d="M 725.976 660.431 C 730.994 661.943 730.84 662.839 734.807 661.483 L 736.077 658.427 C 740.144 659.269 747.552 667.833 748.799 671.666 C 742.896 674.322 743.782 669.699 740.688 675.376 L 725.976 660.431 z"/>
<path transform="translate(0,0)" fill="rgb(1,97,110)" d="M 618.778 576.359 C 633.825 579.876 652.349 584.721 666.298 591.386 C 659.884 593.648 625.758 580.5 617.377 577.81 L 618.778 576.359 z"/>
<path transform="translate(0,0)" fill="rgb(1,97,110)" d="M 836.528 799.745 C 839.757 809.492 845.186 831.817 846.569 842.261 C 846.087 843.302 846.458 842.784 845.264 843.656 C 841.197 834.631 833.872 809.295 836.528 799.745 z"/>
<path transform="translate(0,0)" fill="rgb(1,97,110)" d="M 628.673 1275.48 L 627.154 1274.7 C 629.371 1271.51 632.11 1272.25 636.312 1268.96 C 635.093 1266.76 635.399 1267.54 634.797 1264.98 L 636.195 1263.06 C 640.42 1264.68 637.849 1266.45 641.917 1268.74 C 647.047 1267.72 648.39 1267.05 653.244 1268.35 C 644.367 1271.45 637.718 1273.1 628.673 1275.48 z"/>
<path transform="translate(0,0)" fill="rgb(1,97,110)" d="M 727.402 1228.91 C 727.412 1228.67 728.401 1224.55 728.498 1224.06 C 726.767 1221.49 726.064 1219.65 724.833 1216.85 L 725.219 1216.03 C 727.301 1216.76 729.854 1217.67 732.878 1218.74 C 738.951 1216.71 735.71 1216.28 741.955 1217.34 C 737.966 1220.62 731.439 1226.27 727.402 1228.91 z"/>
<path transform="translate(0,0)" fill="rgb(1,97,110)" d="M 827.581 881.731 L 828.613 880.742 C 832.081 888.694 832.469 889.871 833.25 898.486 L 834.451 899.859 C 836.867 899.182 837.234 898.997 839.493 897.873 L 842.397 898.525 L 829.939 906.815 C 828.833 898.631 828.261 889.992 827.581 881.731 z"/>
<path transform="translate(0,0)" fill="rgb(1,97,110)" d="M 716.882 652.666 C 716.222 649.727 715.182 647.277 716.01 644.742 C 720.594 643.307 724.676 649.711 726.472 653.298 L 726.147 654.896 C 721.219 652.999 722.448 652.648 717.997 653.487 L 716.882 652.666 z"/>
<path transform="translate(0,0)" fill="rgb(1,97,110)" d="M 751.896 687.693 C 751.759 683.801 750.942 682.155 752.706 679.638 C 756.169 680.872 757.958 684.136 758.87 687.513 L 758.049 688.358 C 755.838 688.08 754.616 687.862 752.447 688.417 L 751.896 687.693 z"/>
<path transform="translate(0,0)" fill="rgb(1,97,110)" d="M 719.766 628.13 C 725.821 633.822 730.757 630.633 734.447 638.908 C 725.933 643.489 719.798 635.92 719.766 628.13 z"/>
<path transform="translate(0,0)" fill="rgb(1,97,110)" d="M 838.041 890.085 C 840.971 891.727 839.972 890.6 841.426 893.296 L 839.967 896.757 C 836.308 895.643 836.996 896.657 835.64 894.427 L 838.041 890.085 z"/>
<path transform="translate(0,0)" fill="rgb(1,97,110)" d="M 609.996 595.481 C 611.154 595.241 612.31 595.902 612.691 597.021 C 613.073 598.141 612.561 599.369 611.497 599.887 C 610.681 600.284 609.708 600.175 609.001 599.605 C 608.293 599.036 607.978 598.11 608.191 597.227 C 608.403 596.345 609.107 595.664 609.996 595.481 z"/>
<path transform="translate(0,0)" fill="rgb(107,64,126)" d="M 372.018 771.878 C 394.271 771.692 420.084 771.077 442.154 772.137 L 566.608 771.896 C 578.546 771.698 625.936 769.648 634.955 775.519 C 638.703 777.958 637.232 816.023 637.157 823.96 L 517.251 824.663 C 500.652 824.635 479.259 825.184 463.125 824.126 C 455.71 824.929 433.87 824.387 425.647 824.384 L 343.603 824.111 C 343.567 813.342 342.751 782.498 345.161 774.024 C 349.54 770.914 365.956 771.849 372.018 771.878 z"/>
<path transform="translate(0,0)" fill="rgb(89,56,103)" d="M 566.608 771.896 C 578.546 771.698 625.936 769.648 634.955 775.519 C 638.703 777.958 637.232 816.023 637.157 823.96 L 517.251 824.663 C 500.652 824.635 479.259 825.184 463.125 824.126 L 463.719 822.635 C 468.454 821.495 476.53 822.754 482.275 822.711 L 565.685 822.671 C 589.06 822.655 608.238 820.972 633.448 821.51 C 634.449 806.741 633.234 791.326 634.162 775.485 C 619.093 775.266 604.05 774.722 588.995 774.14 C 580.331 773.805 569.161 774.546 560.827 773.565 L 566.608 771.896 z"/>
<path transform="translate(0,0)" fill="rgb(102,62,119)" d="M 372.018 771.878 C 394.271 771.692 420.084 771.077 442.154 772.137 C 436.961 777.103 389.292 773.765 379.339 774.346 C 377.507 774.452 373.812 772.827 372.018 771.878 z"/>
<path transform="translate(0,0)" fill="rgb(253,254,251)" d="M 371.366 789.844 C 376.37 787.342 382.454 789.385 384.933 794.4 C 387.412 799.415 385.34 805.49 380.314 807.945 C 375.32 810.385 369.294 808.33 366.831 803.348 C 364.368 798.365 366.395 792.33 371.366 789.844 z"/>
<path transform="translate(0,0)" fill="rgb(253,254,251)" d="M 409.183 789.568 C 414.233 787.668 419.872 790.176 421.844 795.198 C 423.816 800.221 421.389 805.896 416.395 807.939 C 413.1 809.287 409.336 808.756 406.542 806.551 C 403.748 804.345 402.359 800.806 402.906 797.289 C 403.453 793.772 405.851 790.821 409.183 789.568 z"/>
<path transform="translate(0,0)" fill="rgb(253,254,251)" d="M 568.602 789.936 C 573.604 788.324 578.984 790.962 580.773 795.904 C 582.563 800.845 580.119 806.316 575.244 808.281 C 571.933 809.616 568.156 809.036 565.397 806.769 C 562.639 804.502 561.338 800.909 562.006 797.402 C 562.674 793.894 565.203 791.031 568.602 789.936 z"/>
<path transform="translate(0,0)" fill="rgb(253,254,251)" d="M 603.465 790.821 C 607.879 788.369 613.445 789.948 615.914 794.352 C 618.383 798.756 616.827 804.328 612.433 806.815 C 608.014 809.317 602.403 807.75 599.919 803.32 C 597.436 798.891 599.025 793.286 603.465 790.821 z"/>
<path transform="translate(0,0)" fill="rgb(99,64,114)" d="M 395.034 784.535 C 395.992 783.692 397.35 783.477 398.521 783.984 C 399.692 784.491 400.465 785.628 400.506 786.903 C 400.546 788.178 399.848 789.362 398.712 789.943 C 397.232 790.699 395.421 790.235 394.487 788.861 C 393.552 787.487 393.787 785.633 395.034 784.535 z"/>
<path transform="translate(0,0)" fill="rgb(44,45,46)" d="M 235.137 1382.94 C 268.529 1383.27 309.116 1379.17 308.489 1428.08 C 308.32 1441.28 305.153 1448.99 296.422 1458.78 C 275.852 1474.81 260.209 1472.07 235.106 1472.09 C 235.188 1442.6 235.831 1412.33 235.137 1382.94 z"/>
<path transform="translate(0,0)" fill="rgb(253,254,251)" d="M 253.092 1398.89 C 262.944 1398.94 271.823 1399.13 280.238 1404.96 C 285.953 1408.86 289.81 1414.93 290.899 1421.77 C 292.444 1431.93 288.673 1440.32 282.692 1448.17 C 271.958 1456.24 266.271 1455.89 253.212 1456.6 C 253.288 1437.37 253.248 1418.13 253.092 1398.89 z"/>
<path transform="translate(0,0)" fill="rgb(44,45,46)" d="M 1412.27 1383.03 C 1431.39 1383.05 1458.48 1380.61 1473.24 1394.56 C 1490.61 1410.99 1490.38 1441.47 1473.83 1458.62 C 1456.03 1474.2 1434.28 1471.79 1411.95 1471.73 L 1412.27 1383.03 z"/>
<path transform="translate(0,0)" fill="rgb(253,254,251)" d="M 1429.96 1398.98 C 1440.82 1398.93 1449.44 1398.32 1458.58 1405.81 C 1464.12 1410.27 1467.59 1416.8 1468.19 1423.88 C 1469.01 1433.59 1465.52 1441.23 1459.46 1448.41 C 1449.08 1456.39 1442.89 1455.72 1430.22 1456.17 C 1429.73 1437.34 1430.32 1418 1429.96 1398.98 z"/>
<path transform="translate(0,0)" fill="rgb(40,40,41)" d="M 1056.4 1388.85 C 1066.77 1374.49 1089.19 1376.24 1096.85 1392.72 C 1100.48 1412.55 1082.1 1415.85 1069.01 1425.5 C 1055.27 1435.62 1052.84 1446.05 1068.38 1455.93 C 1076.92 1461.27 1086.19 1456.85 1094.22 1452.62 C 1085.76 1445.02 1081.99 1442.74 1076.85 1432.74 C 1081.63 1426.9 1087.68 1420.83 1094.36 1416.73 C 1104.89 1410.26 1124.86 1411.09 1125.25 1427.18 C 1125.5 1437.2 1121.01 1443.94 1115.09 1451.61 C 1120.2 1458.93 1126.11 1464.66 1132.97 1470.34 C 1125.86 1470.47 1120.24 1470.68 1113.18 1471.35 L 1105.27 1462.2 C 1047.75 1493.84 1022.81 1440.23 1053.32 1419.76 C 1055.41 1418.1 1057.16 1416.42 1059.1 1414.61 C 1054.67 1406.08 1048.98 1397.83 1056.4 1388.85 z"/>
<path transform="translate(0,0)" fill="rgb(44,45,46)" d="M 1056.4 1388.85 C 1066.77 1374.49 1089.19 1376.24 1096.85 1392.72 C 1095.81 1396.8 1095.27 1401.62 1091.9 1403.95 L 1088.94 1404.04 C 1087.55 1407.41 1086.71 1411.3 1083.99 1412.45 L 1082.46 1411.55 C 1083.9 1410.11 1083.59 1409.76 1083.14 1408.27 C 1080.75 1408.84 1081.44 1408.57 1079.38 1409.65 C 1078.72 1408.35 1078.42 1407.24 1077.29 1406.32 L 1072.79 1406.42 L 1072.31 1407.64 C 1071.66 1409.34 1071.89 1408.64 1071.47 1410.32 C 1069.72 1410.22 1068.23 1410.09 1066.48 1410.12 C 1067.07 1411.56 1067.6 1412.98 1068.02 1414.48 L 1066.58 1415.63 L 1063.75 1414.02 C 1062.11 1419.85 1060.88 1423.18 1053.32 1419.76 C 1055.41 1418.1 1057.16 1416.42 1059.1 1414.61 C 1054.67 1406.08 1048.98 1397.83 1056.4 1388.85 z"/>
<path transform="translate(0,0)" fill="url(#Gradient1)" d="M 1056.4 1388.85 L 1057.74 1388.38 C 1059.18 1387.86 1059.93 1387.56 1061.28 1386.94 L 1063.27 1387.3 C 1062.57 1389.62 1062.74 1389.06 1061.46 1391.18 L 1061.99 1391.47 L 1061.59 1392.94 C 1061.08 1394.91 1061.23 1394.1 1061.03 1395.93 L 1061.67 1396.51 C 1063.29 1400.9 1063.59 1402.53 1066.44 1406.08 L 1068.38 1406.39 L 1069.3 1405.03 L 1072.79 1406.42 L 1072.31 1407.64 C 1071.66 1409.34 1071.89 1408.64 1071.47 1410.32 C 1069.72 1410.22 1068.23 1410.09 1066.48 1410.12 C 1067.07 1411.56 1067.6 1412.98 1068.02 1414.48 L 1066.58 1415.63 L 1063.75 1414.02 C 1062.11 1419.85 1060.88 1423.18 1053.32 1419.76 C 1055.41 1418.1 1057.16 1416.42 1059.1 1414.61 C 1054.67 1406.08 1048.98 1397.83 1056.4 1388.85 z"/>
<path transform="translate(0,0)" fill="rgb(253,254,251)" d="M 1075.52 1391.48 C 1082.04 1395.32 1085.21 1401.64 1077.29 1406.32 L 1072.79 1406.42 L 1069.3 1405.03 C 1068.37 1396.8 1068.23 1395.56 1075.52 1391.48 z"/>
<path transform="translate(0,0)" fill="rgb(40,40,41)" d="M 1061.67 1396.51 C 1065.82 1391.36 1070.32 1384.43 1077.53 1389.18 L 1077.57 1391.13 L 1075.52 1391.48 C 1068.23 1395.56 1068.37 1396.8 1069.3 1405.03 L 1068.38 1406.39 L 1066.44 1406.08 C 1063.59 1402.53 1063.29 1400.9 1061.67 1396.51 z"/>
<path transform="translate(0,0)" fill="rgb(253,254,251)" d="M 1106.39 1425.77 C 1109.1 1426.33 1108.06 1425.64 1109.59 1427.95 C 1109.44 1433.6 1106.52 1437.95 1103.57 1442.71 C 1100.06 1438.34 1097.66 1436.53 1098.49 1430.83 C 1100.56 1427.73 1102.91 1427.24 1106.39 1425.77 z"/>
<path transform="translate(0,0)" fill="rgb(44,45,46)" d="M 1051.53 1456.54 C 1054.03 1457.36 1053.22 1456.83 1055.1 1458.65 C 1054.97 1462.6 1055.35 1462.6 1057.47 1465.86 C 1053.55 1464.96 1052.9 1464.53 1050.52 1461.38 C 1050.37 1457.93 1049.98 1459.48 1051.53 1456.54 z"/>
<path transform="translate(0,0)" fill="rgb(44,45,46)" d="M 1198.99 1383.16 C 1206.46 1383.14 1214.29 1383.39 1221.72 1383.25 C 1242.67 1382.86 1261.64 1394.48 1251.4 1417.88 L 1249.67 1420.16 C 1246.29 1424.19 1244.54 1424.98 1240.11 1427.81 C 1270.28 1446.56 1254.49 1472.77 1224.16 1471.82 C 1216.18 1471.57 1207.27 1471.93 1199.17 1471.92 C 1200.35 1445.72 1199.41 1409.94 1198.99 1383.16 z"/>
<path transform="translate(0,0)" fill="rgb(40,40,41)" d="M 1249.67 1420.16 C 1244.99 1419.45 1241.79 1418.29 1241.64 1413.14 C 1244.19 1411.21 1242.74 1411.74 1246.26 1411.91 C 1249.73 1414.17 1249.52 1414.1 1251.4 1417.88 L 1249.67 1420.16 z"/>
<path transform="translate(0,0)" fill="rgb(253,254,251)" d="M 1217.03 1435 C 1227.6 1435.59 1245.66 1438.35 1235.75 1452.97 C 1229.93 1456.75 1224.12 1456.19 1217.15 1456.43 L 1217.03 1435 z"/>
<path transform="translate(0,0)" fill="rgb(253,254,251)" d="M 1216.98 1398.75 C 1230.76 1398.96 1240.88 1402.38 1232.56 1418.27 C 1226.9 1420.52 1223.09 1420.51 1217.07 1421.06 L 1216.98 1398.75 z"/>
<path transform="translate(0,0)" fill="rgb(40,40,41)" d="M 1215.06 1422.69 C 1218.03 1422.99 1218.2 1422.8 1220.81 1424.12 C 1222.55 1427.82 1222.52 1426.06 1221.37 1429.57 L 1221.98 1430.49 L 1221.47 1431.85 C 1218.92 1432.13 1219.23 1435.25 1215.39 1431.63 C 1215.49 1428.06 1215.39 1426.27 1215.06 1422.69 z"/>
<path transform="translate(0,0)" fill="rgb(44,45,46)" d="M 1681.72 1383.05 L 1700.06 1382.84 C 1700.11 1412.38 1700 1441.91 1699.75 1471.45 C 1693.03 1471.51 1686.32 1471.49 1679.61 1471.39 C 1673.98 1463.83 1650.08 1428.89 1646.38 1421.38 C 1643.75 1418.89 1642.16 1415.45 1640.27 1412.21 L 1638.39 1412.22 C 1637.24 1421.85 1638.13 1460.6 1638.2 1471.43 C 1632.57 1471.24 1627 1470.99 1621.36 1471.2 C 1621.72 1441.77 1621.25 1412.77 1621.14 1383.37 C 1627.93 1383.45 1634.27 1383.5 1641.05 1383.27 C 1654.82 1403.92 1669.42 1425.17 1682.25 1446.33 C 1681.33 1424.96 1682.07 1404.25 1681.72 1383.05 z"/>
<path transform="translate(0,0)" fill="rgb(44,45,46)" d="M 1640.27 1412.21 C 1647.07 1412.67 1650.66 1413.1 1652.1 1420.41 L 1650.99 1423.35 C 1648.73 1422.63 1649.53 1422.99 1647.62 1421.44 L 1646.38 1421.38 C 1643.75 1418.89 1642.16 1415.45 1640.27 1412.21 z"/>
<path transform="translate(0,0)" fill="rgb(44,45,46)" d="M 674.364 1381.42 L 691.374 1381.36 C 705.03 1409.29 714.026 1443.9 726.761 1471.72 C 721.198 1470.97 712.653 1471.29 706.805 1471.33 C 704.813 1464.7 702.396 1458.7 699.887 1452.25 L 689.25 1452.16 L 663.942 1452.19 C 661.54 1458.42 658.614 1465.04 656.012 1471.24 L 636.757 1471.65 C 642.977 1458.4 667.353 1385.46 674.364 1381.42 z"/>
<path transform="translate(0,0)" fill="rgb(253,254,251)" d="M 680.847 1401.4 C 684.392 1404.39 692.706 1431.77 694.891 1438.4 L 684.249 1437.98 L 668.473 1437.64 C 672.141 1425.38 677.232 1414.09 680.847 1401.4 z"/>
<path transform="translate(0,0)" fill="rgb(44,45,46)" d="M 1771.9 1381.22 C 1791.87 1379.41 1806.53 1383.54 1819.17 1399.89 C 1814.46 1402.98 1809.76 1405.78 1804.93 1408.67 C 1796.78 1400.89 1787.86 1394.76 1775.37 1396.84 C 1749.35 1401.16 1743.72 1443.95 1766.93 1455.17 C 1782.88 1462.89 1795.15 1456.72 1803.05 1441.01 C 1795.85 1441.37 1787.48 1442.94 1781.67 1439.4 C 1779.27 1435.39 1780.08 1434.42 1780.03 1429.29 C 1782.9 1427.47 1817.73 1428.25 1824.07 1428.28 C 1823.48 1434.64 1823.13 1439.91 1820.76 1445.92 C 1816.54 1456.86 1807.96 1465.54 1797.07 1469.89 C 1784.79 1474.78 1769.28 1474.15 1757.33 1468.54 C 1746.77 1463.7 1738.65 1454.77 1734.82 1443.81 C 1728.19 1424.25 1736.19 1399.75 1753.78 1388.8 C 1760.33 1384.72 1764.64 1383.38 1771.9 1381.22 z"/>
<path transform="translate(0,0)" fill="rgb(44,45,46)" d="M 469.305 1459.09 C 453.835 1479.36 418.79 1476.14 401.98 1458.58 C 393.68 1449.93 389.286 1438.26 389.821 1426.28 C 390.389 1413.65 396.068 1401.8 405.553 1393.44 C 415.104 1384.74 427.788 1380.32 440.675 1381.19 C 456.48 1382.34 466.149 1389.66 476.093 1400.85 C 470.743 1404.13 467.638 1406.54 462.711 1410.38 C 450.757 1397.88 441.688 1392.97 424.524 1400.31 L 419.05 1404.01 C 412.287 1412.15 407.928 1418.8 408.83 1430.31 C 409.535 1438.99 413.866 1446.98 420.761 1452.31 C 432.485 1461.41 448.56 1460.67 456.89 1447.53 C 457.606 1446.38 458.283 1445.2 458.918 1444 L 458.398 1442.25 C 455.255 1441.34 453.773 1441.36 450.574 1441.14 C 445.838 1441.36 441.609 1441.93 437.976 1439.28 C 437.794 1435.66 437.356 1433.19 438.548 1429.77 C 441.939 1427.67 443.786 1428.41 448.274 1428.4 C 458.837 1428.45 470.733 1428.25 481.184 1428.75 C 480.244 1440.48 478.938 1450.56 469.305 1459.09 z"/>
<path transform="translate(0,0)" fill="rgb(40,40,41)" d="M 437.976 1439.28 C 437.794 1435.66 437.356 1433.19 438.548 1429.77 C 441.939 1427.67 443.786 1428.41 448.274 1428.4 C 458.837 1428.45 470.733 1428.25 481.184 1428.75 C 480.244 1440.48 478.938 1450.56 469.305 1459.09 C 470.084 1445.07 465.859 1438.98 450.574 1441.14 C 445.838 1441.36 441.609 1441.93 437.976 1439.28 z"/>
<path transform="translate(0,0)" fill="rgb(44,45,46)" d="M 437.976 1439.28 C 437.794 1435.66 437.356 1433.19 438.548 1429.77 C 441.939 1427.67 443.786 1428.41 448.274 1428.4 C 452.722 1429.51 455.157 1429.98 459.705 1430.54 C 450.734 1431.84 451.288 1429.85 446.025 1438.11 C 442.913 1439.75 441.486 1439.39 437.976 1439.28 z"/>
<path transform="translate(0,0)" fill="rgb(40,40,41)" d="M 419.05 1404.01 C 418.333 1403.59 417.353 1403.32 416.527 1403.04 L 414.65 1405.67 L 413.348 1405.7 C 410.449 1402.24 405.981 1396.74 409.226 1392.57 L 411.304 1392.47 L 414.473 1396.11 C 420.781 1396.2 414.436 1394.29 420.146 1393.77 C 422.437 1396.33 423.35 1397.03 424.524 1400.31 L 419.05 1404.01 z"/>
<path transform="translate(0,0)" fill="rgb(44,45,46)" d="M 1516.8 1383.13 L 1534.43 1383.33 C 1534.4 1394.94 1531.9 1445.52 1539.81 1451.08 C 1577.95 1477.85 1569.07 1400.03 1568.97 1383.16 C 1574.65 1383.23 1580.43 1383.17 1586.11 1383.17 L 1586.28 1399.69 C 1586.39 1415.13 1589.87 1449.71 1576.8 1462.23 C 1556.05 1482.13 1520.02 1473.02 1517.58 1441.62 C 1516.23 1424.25 1516.93 1402.31 1516.8 1383.13 z"/>
<path transform="translate(0,0)" fill="rgb(44,45,46)" d="M 930.226 1444.48 C 933.94 1455.98 949.058 1461.9 955.713 1451.76 C 958.313 1433.53 922.728 1431.39 917.852 1417.27 C 905.687 1382.05 955.451 1364.96 973.301 1399.64 C 954.233 1413.25 960.471 1398.33 941.634 1395.23 C 935.785 1394.26 932.822 1403.07 933.768 1407.12 C 935.221 1413.34 948.853 1418.92 954.301 1421.99 L 961.199 1425.72 C 971.384 1432.18 978.824 1441.43 973.578 1454.35 C 962.956 1480.5 923.947 1476.81 913.538 1452.6 C 912.627 1450.48 913.995 1448.72 915.131 1447.09 C 918.673 1445.21 925.921 1444.92 930.226 1444.48 z"/>
<path transform="translate(0,0)" fill="rgb(40,40,41)" d="M 954.301 1421.99 L 961.199 1425.72 L 958.187 1427.97 C 955.099 1428.13 956.615 1428.22 953.5 1426.73 C 952.667 1423.6 952.56 1425.15 954.301 1421.99 z"/>
<path transform="translate(0,0)" fill="rgb(44,45,46)" d="M 831.16 1383.01 C 848.276 1383.15 865.394 1383.05 882.507 1382.7 C 882.273 1388.7 882.466 1391.93 882.931 1397.86 L 849.318 1397.93 L 849.404 1420.58 C 858.662 1420.26 869.852 1420.67 879.25 1420.76 L 879.368 1435.71 C 872.696 1435.54 856.569 1434.93 850.649 1436.3 L 849.546 1438.23 C 849.368 1444.11 849.46 1450.41 849.452 1456.33 L 882.546 1456.27 L 882.806 1471.12 C 865.661 1471.45 848.512 1471.51 831.365 1471.3 C 832.163 1462.15 831.754 1441.59 831.73 1431.85 C 831.696 1417.9 832.548 1396.13 831.16 1383.01 z"/>
<path transform="translate(0,0)" fill="rgb(44,45,46)" d="M 580.44 1382.84 C 590.473 1382.15 607.094 1382.57 617.797 1382.39 L 617.997 1397.16 C 610.907 1397.33 603.581 1397.2 596.468 1397.16 L 596.103 1471.14 L 578.146 1471.7 C 579.21 1449.8 578.254 1419.72 578.199 1397.22 L 558.461 1397.25 C 558.306 1392.66 557.631 1387.33 559.163 1383.15 C 564.661 1382.47 574.966 1382.16 580.44 1382.84 z"/>
<path transform="translate(0,0)" fill="rgb(40,40,41)" d="M 559.163 1383.15 C 564.661 1382.47 574.966 1382.16 580.44 1382.84 C 583.077 1383.52 586.659 1384 589.395 1384.45 C 578.998 1384.89 570.395 1385.96 559.772 1385.88 L 559.163 1383.15 z"/>
<path transform="translate(0,0)" fill="rgb(40,40,41)" d="M 562.961 1389.21 C 566.633 1389.8 567.284 1389.22 569.385 1391.34 L 568.358 1393.07 C 564.598 1392.72 563.457 1393.37 561.515 1391.31 L 562.961 1389.21 z"/>
<path transform="translate(0,0)" fill="rgb(44,45,46)" d="M 768.894 1382.48 C 770.672 1382.38 769.744 1382.25 771.647 1383.05 C 773.575 1390.46 772.162 1444.47 772.184 1455.85 C 781.937 1455.87 792.118 1455.51 801.902 1455.3 L 801.864 1471.24 L 790.979 1471.2 L 754.671 1471.19 C 754.926 1441.71 754.946 1412.24 754.731 1382.76 L 768.894 1382.48 z"/>
<path transform="translate(0,0)" fill="rgb(44,45,46)" d="M 1338.15 1383.27 L 1355.34 1383.3 L 1355.32 1455.73 L 1384.9 1455.61 C 1384.57 1460.38 1384.67 1466.43 1384.62 1471.3 C 1369.73 1470.93 1353.39 1471.37 1338.39 1471.48 C 1339.17 1462.51 1338.79 1446.88 1338.75 1437.5 C 1338.74 1419.42 1338.55 1401.35 1338.15 1383.27 z"/>
<path transform="translate(0,0)" fill="rgb(44,45,46)" d="M 511.202 1382.68 C 516.892 1382.85 523.341 1382.68 529.086 1382.64 C 529.169 1412.02 528.681 1442.04 529.284 1471.35 C 523.038 1471.15 517.617 1471.4 511.385 1471.68 L 511.202 1382.68 z"/>
<path transform="translate(0,0)" fill="rgb(44,45,46)" d="M 1284.88 1383.2 C 1290.54 1383.21 1296.3 1383.11 1301.97 1383.05 C 1303.82 1407.79 1302.83 1445.16 1303.16 1471.17 L 1285.32 1471.06 C 1285.33 1441.77 1285.18 1412.48 1284.88 1383.2 z"/>
<path transform="translate(0,0)" fill="rgb(44,45,46)" d="M 341.028 1383.16 L 357.816 1382.89 C 358.06 1412.42 357.535 1441.64 358.149 1471.28 L 340.728 1471.41 L 341.028 1383.16 z"/>
</svg>